<svg width="142" height="48" viewBox="0 0 142 48" fill="none" xmlns="http://www.w3.org/2000/svg">
<path d="M60.1501 16.8071C61.7168 16.8071 63.0913 17.1133 64.2735 17.7258C65.4699 18.3382 66.3886 19.2142 67.0295 20.3537C67.6847 21.4789 68.0123 22.7892 68.0123 24.2848C68.0123 25.7803 67.6847 27.0907 67.0295 28.2159C66.3886 29.3269 65.4699 30.1886 64.2735 30.801C63.0913 31.4135 61.7168 31.7197 60.1501 31.7197H54.9371V16.8071H60.1501ZM60.0432 29.1773C61.61 29.1773 62.8207 28.75 63.6753 27.8954C64.5299 27.0408 64.9572 25.8373 64.9572 24.2848C64.9572 22.7323 64.5299 21.5216 63.6753 20.6528C62.8207 19.7697 61.61 19.3281 60.0432 19.3281H57.9281V29.1773H60.0432ZM71.7682 18.4736C71.2412 18.4736 70.7996 18.3098 70.4436 17.9822C70.1017 17.6403 69.9308 17.2202 69.9308 16.7216C69.9308 16.2231 70.1017 15.8101 70.4436 15.4825C70.7996 15.1406 71.2412 14.9697 71.7682 14.9697C72.2952 14.9697 72.7296 15.1406 73.0714 15.4825C73.4275 15.8101 73.6056 16.2231 73.6056 16.7216C73.6056 17.2202 73.4275 17.6403 73.0714 17.9822C72.7296 18.3098 72.2952 18.4736 71.7682 18.4736ZM73.2424 19.8836V31.7197H70.2513V19.8836H73.2424ZM81.1328 28.9637L84.1239 19.8836H87.3072L82.9274 31.7197H79.2954L74.937 19.8836H78.1417L81.1328 28.9637ZM99.9901 25.5453C99.9901 25.9726 99.9616 26.3572 99.9046 26.699H91.2519C91.3231 27.5536 91.6222 28.223 92.1492 28.7073C92.6762 29.1916 93.3243 29.4337 94.0934 29.4337C95.2044 29.4337 95.9949 28.9565 96.4649 28.0023H99.691C99.3491 29.1417 98.6939 30.0818 97.7254 30.8224C96.7569 31.5488 95.5676 31.912 94.1575 31.912C93.018 31.912 91.9925 31.6628 91.081 31.1642C90.1836 30.6515 89.4786 29.9322 88.9658 29.0064C88.4673 28.0806 88.2181 27.0123 88.2181 25.8017C88.2181 24.5768 88.4673 23.5014 88.9658 22.5756C89.4644 21.6498 90.1623 20.9376 91.0596 20.4391C91.9569 19.9406 92.9895 19.6913 94.1575 19.6913C95.2827 19.6913 96.2868 19.9335 97.1699 20.4177C98.0672 20.902 98.758 21.5928 99.2423 22.4901C99.7408 23.3732 99.9901 24.3916 99.9901 25.5453ZM96.8922 24.6907C96.8779 23.9216 96.6002 23.3091 96.059 22.8533C95.5177 22.3833 94.8554 22.1483 94.072 22.1483C93.3314 22.1483 92.7047 22.3762 92.1919 22.832C91.6934 23.2735 91.3872 23.8931 91.2732 24.6907H96.8922ZM107.322 31.8693C106.282 31.8693 105.342 31.6912 104.502 31.3352C103.676 30.9791 103.021 30.4663 102.536 29.7969C102.052 29.1275 101.803 28.337 101.789 27.4254H104.993C105.036 28.0379 105.25 28.5221 105.634 28.8782C106.033 29.2343 106.574 29.4123 107.258 29.4123C107.956 29.4123 108.504 29.2485 108.903 28.9209C109.302 28.5791 109.501 28.1376 109.501 27.5963C109.501 27.1548 109.366 26.7916 109.095 26.5067C108.825 26.2219 108.483 26.0011 108.07 25.8444C107.671 25.6735 107.116 25.4883 106.404 25.2889C105.435 25.0041 104.644 24.7263 104.032 24.4557C103.434 24.1708 102.914 23.7507 102.472 23.1952C102.045 22.6254 101.831 21.8706 101.831 20.9305C101.831 20.0474 102.052 19.2783 102.494 18.6231C102.935 17.9679 103.555 17.4694 104.352 17.1276C105.15 16.7715 106.062 16.5935 107.087 16.5935C108.625 16.5935 109.872 16.9709 110.826 17.7258C111.795 18.4664 112.329 19.5062 112.428 20.845H109.138C109.11 20.3323 108.889 19.9121 108.476 19.5845C108.077 19.2427 107.543 19.0718 106.874 19.0718C106.29 19.0718 105.82 19.2213 105.463 19.5204C105.122 19.8195 104.951 20.254 104.951 20.8237C104.951 21.2225 105.079 21.5572 105.335 21.8278C105.606 22.0842 105.933 22.2979 106.318 22.4688C106.717 22.6254 107.272 22.8106 107.985 23.0243C108.953 23.3091 109.744 23.594 110.356 23.8788C110.968 24.1637 111.495 24.591 111.937 25.1607C112.379 25.7305 112.599 26.4782 112.599 27.404C112.599 28.2017 112.393 28.9423 111.98 29.626C111.567 30.3097 110.961 30.858 110.164 31.2711C109.366 31.6699 108.419 31.8693 107.322 31.8693ZM126.195 25.5453C126.195 25.9726 126.167 26.3572 126.11 26.699H117.457C117.528 27.5536 117.827 28.223 118.354 28.7073C118.881 29.1916 119.53 29.4337 120.299 29.4337C121.41 29.4337 122.2 28.9565 122.67 28.0023H125.896C125.554 29.1417 124.899 30.0818 123.931 30.8224C122.962 31.5488 121.773 31.912 120.363 31.912C119.223 31.912 118.198 31.6628 117.286 31.1642C116.389 30.6515 115.684 29.9322 115.171 29.0064C114.673 28.0806 114.423 27.0123 114.423 25.8017C114.423 24.5768 114.673 23.5014 115.171 22.5756C115.67 21.6498 116.368 20.9376 117.265 20.4391C118.162 19.9406 119.195 19.6913 120.363 19.6913C121.488 19.6913 122.492 19.9335 123.375 20.4177C124.273 20.902 124.963 21.5928 125.448 22.4901C125.946 23.3732 126.195 24.3916 126.195 25.5453ZM123.097 24.6907C123.083 23.9216 122.805 23.3091 122.264 22.8533C121.723 22.3833 121.061 22.1483 120.277 22.1483C119.537 22.1483 118.91 22.3762 118.397 22.832C117.899 23.2735 117.592 23.8931 117.478 24.6907H123.097ZM127.609 25.7589C127.609 24.5625 127.844 23.5014 128.314 22.5756C128.799 21.6498 129.447 20.9376 130.259 20.4391C131.085 19.9406 132.003 19.6913 133.015 19.6913C133.898 19.6913 134.667 19.8694 135.322 20.2255C135.992 20.5815 136.526 21.0302 136.924 21.5714V19.8836H139.937V31.7197H136.924V29.9892C136.54 30.5447 136.006 31.0076 135.322 31.3779C134.653 31.734 133.876 31.912 132.993 31.912C131.996 31.912 131.085 31.6556 130.259 31.1429C129.447 30.6301 128.799 29.9108 128.314 28.985C127.844 28.045 127.609 26.9696 127.609 25.7589ZM136.924 25.8017C136.924 25.0753 136.782 24.4557 136.497 23.9429C136.212 23.4159 135.828 23.0171 135.343 22.7465C134.859 22.4616 134.339 22.3192 133.784 22.3192C133.228 22.3192 132.716 22.4545 132.246 22.7251C131.776 22.9958 131.391 23.3946 131.092 23.9216C130.807 24.4343 130.665 25.0468 130.665 25.7589C130.665 26.4711 130.807 27.0978 131.092 27.6391C131.391 28.166 131.776 28.572 132.246 28.8568C132.73 29.1417 133.243 29.2841 133.784 29.2841C134.339 29.2841 134.859 29.1488 135.343 28.8782C135.828 28.5933 136.212 28.1945 136.497 27.6818C136.782 27.1548 136.924 26.5281 136.924 25.8017Z" fill="black"/>
<path d="M41.0923 32.5023C39.3906 32.5023 38.6364 31.8448 37.5729 30.9166C36.3933 29.9111 34.9236 28.6348 32.1583 28.6348C29.3737 28.6348 27.9233 29.9111 26.7437 30.9166C25.6801 31.8448 24.9066 32.5023 23.2049 32.5023C21.5225 32.5023 20.749 31.8448 19.6854 30.9166C18.5058 29.9111 17.0362 28.6348 14.2709 28.6348C11.4863 28.6348 10.0166 29.9111 8.837 30.9166C7.77343 31.8448 7.01924 32.5023 5.31752 32.5023C4.52467 32.5023 3.86719 33.1598 3.86719 33.9526C3.86719 34.7648 4.52467 35.403 5.31752 35.403C8.10215 35.403 9.55246 34.146 10.7321 33.1211C11.7956 32.1929 12.5692 31.5354 14.2709 31.5354C15.9726 31.5354 16.7268 32.1929 17.7904 33.1211C18.97 34.146 20.4396 35.403 23.2049 35.403C25.9896 35.403 27.4592 34.146 28.6388 33.1211C29.7024 32.1929 30.4566 31.5354 32.1583 31.5354C33.8407 31.5354 34.6142 32.1929 35.6778 33.1211C36.8574 34.146 38.327 35.403 41.0923 35.403C41.8852 35.403 42.5427 34.7648 42.5427 33.9526C42.5427 33.1598 41.8852 32.5023 41.0923 32.5023Z" fill="black"/>
<path d="M41.0923 24.5365C39.3906 24.5365 38.6364 23.8597 37.5729 22.9508C36.3933 21.9259 34.9236 20.6689 32.1583 20.6689C29.3737 20.6689 27.9233 21.9259 26.7437 22.9508C25.6801 23.8597 24.9066 24.5365 23.2049 24.5365C21.5225 24.5365 20.749 23.8597 19.6854 22.9508C18.5058 21.9259 17.0362 20.6689 14.2709 20.6689C11.4863 20.6689 10.0166 21.9259 8.837 22.9508C7.77343 23.8597 7.01924 24.5365 5.31752 24.5365C4.52467 24.5365 3.86719 25.1746 3.86719 25.9868C3.86719 26.7797 4.52467 27.4372 5.31752 27.4372C8.10215 27.4372 9.55246 26.1609 10.7321 25.136C11.7956 24.2271 12.5692 23.5696 14.2709 23.5696C15.9726 23.5696 16.7268 24.2271 17.7904 25.136C18.97 26.1609 20.4396 27.4372 23.2049 27.4372C25.9896 27.4372 27.4592 26.1609 28.6388 25.136C29.7024 24.2271 30.4566 23.5696 32.1583 23.5696C33.8407 23.5696 34.6142 24.2271 35.6778 25.136C36.8574 26.1609 38.327 27.4372 41.0923 27.4372C41.8852 27.4372 42.5427 26.7797 42.5427 25.9868C42.5427 25.1746 41.8852 24.5365 41.0923 24.5365Z" fill="black"/>
<path d="M5.31752 19.5075C8.10215 19.5075 9.55246 18.2312 10.7321 17.2256C11.7956 16.2974 12.5692 15.6399 14.2709 15.6399C15.9726 15.6399 16.7268 16.2974 17.7904 17.2256C18.97 18.2312 20.4396 19.5075 23.2049 19.5075C25.9896 19.5075 27.4592 18.2312 28.6388 17.2256C29.7024 16.2974 30.4566 15.6399 32.1583 15.6399C33.8407 15.6399 34.6142 16.2974 35.6778 17.2256C36.8574 18.2312 38.327 19.5075 41.0923 19.5075C41.8852 19.5075 42.5427 18.85 42.5427 18.0571C42.5427 17.245 41.8852 16.6068 41.0923 16.6068C39.3906 16.6068 38.6364 15.9493 37.5728 15.0211C36.3932 13.9962 34.9236 12.7393 32.1583 12.7393C29.3737 12.7393 27.9233 13.9962 26.7437 15.0211C25.6801 15.9493 24.9066 16.6068 23.2049 16.6068C21.5225 16.6068 20.749 15.9493 19.6854 15.0211C18.5058 13.9962 17.0362 12.7393 14.2709 12.7393C11.4863 12.7393 10.0166 13.9962 8.837 15.0211C7.77342 15.9493 7.01924 16.6068 5.31752 16.6068C4.52467 16.6068 3.86719 17.245 3.86719 18.0571C3.86719 18.85 4.52467 19.5075 5.31752 19.5075Z" fill="black"/>
</svg>
